<svg xmlns="http://www.w3.org/2000/svg" width="495" height="644" fill="none" viewBox="0 0 495 644"><g opacity=".8"><rect width="26.735" height="1.049" x="493.859" y="79.082" stroke="#EEE" transform="rotate(90 493.859 79.082)"/><rect width="25.68" height="1.537" x="493.846" y="79.609" fill="#D7D7D7" transform="rotate(90 493.846 79.6092)"/><g opacity=".3"><rect width=".515" height=".515" x="493.846" y="79.609" fill="#717171" opacity=".9" transform="rotate(90 493.846 79.6092)"/><rect width=".515" height=".515" x="493.846" y="80.123" fill="#787878" opacity=".9" transform="rotate(90 493.846 80.1229)"/><rect width=".515" height=".515" x="493.333" y="80.123" fill="#4C4C4C" opacity=".9" transform="rotate(90 493.333 80.1228)"/><rect width=".515" height=".515" x="493.333" y="79.609" fill="#505050" opacity=".9" transform="rotate(90 493.333 79.6092)"/><rect width=".515" height=".515" x="492.822" y="80.123" fill="#4C4C4C" opacity=".9" transform="rotate(90 492.822 80.1228)"/><rect width=".515" height=".515" x="492.822" y="79.609" fill="#505050" opacity=".9" transform="rotate(90 492.822 79.6092)"/></g><g opacity=".3"><rect width=".515" height=".515" x="493.846" y="104.262" fill="#717171" opacity=".9" transform="rotate(90 493.846 104.262)"/><rect width=".515" height=".515" x="493.846" y="104.776" fill="#787878" opacity=".9" transform="rotate(90 493.846 104.776)"/><rect width=".515" height=".515" x="493.333" y="104.776" fill="#4C4C4C" opacity=".9" transform="rotate(90 493.333 104.776)"/><rect width=".515" height=".515" x="493.333" y="105.289" fill="#CFCFCF" opacity=".9" transform="rotate(90 493.333 105.289)"/><rect width=".515" height=".515" x="493.333" y="104.262" fill="#505050" opacity=".9" transform="rotate(90 493.333 104.262)"/><rect width=".515" height=".515" x="492.822" y="104.776" fill="#4C4C4C" opacity=".9" transform="rotate(90 492.822 104.776)"/><rect width=".515" height=".515" x="492.822" y="104.262" fill="#505050" opacity=".9" transform="rotate(90 492.822 104.262)"/><rect width="19.517" height="1.026" x="493.332" y="84.745" fill="url(#paint0_linear)" opacity=".7" transform="rotate(90 493.332 84.7453)"/></g></g><g opacity=".8"><rect width="26.735" height="1.049" x="493.859" y="47.238" stroke="#EEE" transform="rotate(90 493.859 47.2383)"/><rect width="25.68" height="1.537" x="493.846" y="47.766" fill="#D7D7D7" transform="rotate(90 493.846 47.7655)"/><g opacity=".5"><rect width=".515" height=".515" x="493.846" y="47.766" fill="#717171" opacity=".9" transform="rotate(90 493.846 47.7655)"/><rect width=".515" height=".515" x="493.846" y="48.279" fill="#787878" opacity=".9" transform="rotate(90 493.846 48.2791)"/><rect width=".515" height=".515" x="493.333" y="48.279" fill="#4C4C4C" opacity=".9" transform="rotate(90 493.333 48.2791)"/><rect width=".515" height=".515" x="493.333" y="47.766" fill="#505050" opacity=".9" transform="rotate(90 493.333 47.7655)"/><rect width=".515" height=".515" x="492.822" y="48.279" fill="#4C4C4C" opacity=".9" transform="rotate(90 492.822 48.2791)"/><rect width=".515" height=".515" x="492.822" y="47.766" fill="#505050" opacity=".9" transform="rotate(90 492.822 47.7655)"/><rect width=".515" height=".515" x="492.822" y="47.252" fill="#D1D1D1" opacity=".9" transform="rotate(90 492.822 47.2519)"/><rect width=".515" height=".515" x="493.333" y="47.252" fill="#D1D1D1" opacity=".7" transform="rotate(90 493.333 47.2519)"/><rect width=".515" height=".515" x="493.844" y="47.254" fill="#D1D1D1" opacity=".4" transform="rotate(90 493.844 47.2535)"/></g><g opacity=".4"><rect width=".515" height=".515" x="493.846" y="72.418" fill="#717171" opacity=".9" transform="rotate(90 493.846 72.4185)"/><rect width=".515" height=".515" x="493.846" y="72.932" fill="#787878" opacity=".9" transform="rotate(90 493.846 72.9321)"/><rect width=".515" height=".515" x="493.333" y="72.932" fill="#4C4C4C" opacity=".9" transform="rotate(90 493.333 72.9321)"/><rect width=".515" height=".515" x="492.822" y="73.446" fill="#D1D1D1" opacity=".9" transform="rotate(90 492.822 73.4458)"/><rect width=".515" height=".515" x="493.333" y="73.446" fill="#D1D1D1" opacity=".7" transform="rotate(90 493.333 73.4458)"/><rect width=".515" height=".515" x="493.846" y="73.446" fill="#D1D1D1" opacity=".4" transform="rotate(90 493.846 73.4458)"/><rect width=".515" height=".515" x="493.333" y="72.418" fill="#505050" opacity=".9" transform="rotate(90 493.333 72.4185)"/><rect width=".515" height=".515" x="492.822" y="72.932" fill="#4C4C4C" opacity=".9" transform="rotate(90 492.822 72.9321)"/><rect width=".515" height=".515" x="492.822" y="72.418" fill="#505050" opacity=".9" transform="rotate(90 492.822 72.4185)"/><rect width="19.517" height="1.026" x="493.332" y="52.902" fill="url(#paint1_linear)" opacity=".7" transform="rotate(90 493.332 52.9016)"/></g></g><mask id="path-38-outside-1" width="492" height="642" x=".992" y="1.055" fill="#000" maskUnits="userSpaceOnUse"><rect width="492" height="642" x=".992" y="1.055" fill="#fff"/><path fill-rule="evenodd" d="M37.9922 2.05469C18.1099 2.05469 1.99219 18.1725 1.99219 38.0547V606.006C1.99219 625.889 18.11 642.006 37.9922 642.006H455.798C475.68 642.006 491.798 625.889 491.798 606.006V38.0547C491.798 18.1724 475.68 2.05469 455.798 2.05469H37.9922ZM38 24.5747C30.8203 24.5747 25 30.395 25 37.5747V606.736C25 613.916 30.8203 619.736 38 619.736H456.051C463.231 619.736 469.051 613.915 469.051 606.736V37.5747C469.051 30.395 463.231 24.5747 456.051 24.5747H38Z" clip-rule="evenodd"/></mask><path fill="url(#paint2_radial)" fill-rule="evenodd" d="M37.9922 2.05469C18.1099 2.05469 1.99219 18.1725 1.99219 38.0547V606.006C1.99219 625.889 18.11 642.006 37.9922 642.006H455.798C475.68 642.006 491.798 625.889 491.798 606.006V38.0547C491.798 18.1724 475.68 2.05469 455.798 2.05469H37.9922ZM38 24.5747C30.8203 24.5747 25 30.395 25 37.5747V606.736C25 613.916 30.8203 619.736 38 619.736H456.051C463.231 619.736 469.051 613.915 469.051 606.736V37.5747C469.051 30.395 463.231 24.5747 456.051 24.5747H38Z" clip-rule="evenodd"/><path fill="#F3F3F3" d="M2.99219 38.0547C2.99219 18.7247 18.6622 3.05469 37.9922 3.05469V1.05469C17.5577 1.05469 0.992188 17.6202 0.992188 38.0547H2.99219ZM2.99219 606.006V38.0547H0.992188V606.006H2.99219ZM37.9922 641.006C18.6622 641.006 2.99219 625.336 2.99219 606.006H0.992188C0.992188 626.441 17.5577 643.006 37.9922 643.006V641.006ZM455.798 641.006H37.9922V643.006H455.798V641.006ZM490.798 606.006C490.798 625.336 475.128 641.006 455.798 641.006V643.006C476.233 643.006 492.798 626.441 492.798 606.006H490.798ZM490.798 38.0547V606.006H492.798V38.0547H490.798ZM455.798 3.05469C475.128 3.05469 490.798 18.7247 490.798 38.0547H492.798C492.798 17.6202 476.232 1.05469 455.798 1.05469V3.05469ZM37.9922 3.05469H455.798V1.05469H37.9922V3.05469ZM26 37.5747C26 30.9473 31.3726 25.5747 38 25.5747V23.5747C30.268 23.5747 24 29.8427 24 37.5747H26ZM26 606.736V37.5747H24V606.736H26ZM38 618.736C31.3726 618.736 26 613.363 26 606.736H24C24 614.468 30.268 620.736 38 620.736V618.736ZM456.051 618.736H38V620.736H456.051V618.736ZM468.051 606.736C468.051 613.363 462.678 618.736 456.051 618.736V620.736C463.783 620.736 470.051 614.468 470.051 606.736H468.051ZM468.051 37.5747V606.736H470.051V37.5747H468.051ZM456.051 25.5747C462.678 25.5747 468.051 30.9473 468.051 37.5747H470.051C470.051 29.8427 463.783 23.5747 456.051 23.5747V25.5747ZM38 25.5747H456.051V23.5747H38V25.5747Z" mask="url(#path-38-outside-1)"/><path fill="#0F0F0F" fill-rule="evenodd" d="M39.5293 3.5955C19.647 3.5955 3.5293 19.7132 3.5293 39.5955V604.466C3.5293 624.348 19.6471 640.466 39.5293 640.466H454.261C474.143 640.466 490.261 624.348 490.261 604.466V39.5955C490.261 19.7132 474.143 3.5955 454.261 3.5955H39.5293ZM38.0001 24.5746C30.8204 24.5746 25.0001 30.395 25.0001 37.5747V606.736C25.0001 613.916 30.8204 619.736 38.0001 619.736H456.051C463.231 619.736 469.051 613.915 469.051 606.736V37.5746C469.051 30.3949 463.231 24.5746 456.051 24.5746H38.0001Z" clip-rule="evenodd"/><path fill="url(#paint3_linear)" fill-rule="evenodd" d="M39.5293 3.5955C19.647 3.5955 3.5293 19.7132 3.5293 39.5955V604.466C3.5293 624.348 19.6471 640.466 39.5293 640.466H454.261C474.143 640.466 490.261 624.348 490.261 604.466V39.5955C490.261 19.7132 474.143 3.5955 454.261 3.5955H39.5293ZM38.0001 24.5746C30.8204 24.5746 25.0001 30.395 25.0001 37.5747V606.736C25.0001 613.916 30.8204 619.736 38.0001 619.736H456.051C463.231 619.736 469.051 613.915 469.051 606.736V37.5746C469.051 30.3949 463.231 24.5746 456.051 24.5746H38.0001Z" clip-rule="evenodd"/><rect width="25.642" height="1.054" x="418.558" y=".5" stroke="#E8E8E8"/><rect width="25.617" height="1.541" x="418.572" y=".515" fill="#F7F7F7"/><g opacity=".2"><rect width=".515" height=".515" x="418.574" y=".515" fill="#717171"/><rect width=".515" height=".515" x="419.084" y=".514" fill="#787878"/><rect width=".515" height=".515" x="419.084" y="1.027" fill="#4C4C4C" opacity=".9"/><rect width=".515" height=".515" x="418.571" y="1.027" fill="#505050" opacity=".9"/><rect width=".515" height=".515" x="419.084" y="1.541" fill="#4C4C4C"/><rect width=".515" height=".515" x="418.571" y="1.541" fill="#505050"/></g><g opacity=".2"><rect width=".515" height=".515" x="443.163" y=".514" fill="#717171"/><rect width=".515" height=".515" x="443.678" y=".514" fill="#787878"/><rect width=".515" height=".515" x="443.678" y="1.029" fill="#4C4C4C" opacity=".9"/><rect width=".515" height=".515" x="443.163" y="1.029" fill="#505050" opacity=".9"/><rect width=".515" height=".515" x="443.677" y="1.541" fill="#4C4C4C"/><rect width=".515" height=".515" x="443.163" y="1.541" fill="#505050"/></g><rect width="19.469" height="1.027" x="423.693" y="1.027" fill="url(#paint4_linear)" opacity=".7"/><ellipse cx="215.898" cy="13.096" fill="#E7E7E7" opacity=".7" rx="3.33" ry="3.338"/><ellipse cx="246.126" cy="13.096" fill="#E7E7E7" opacity=".7" rx="3.33" ry="3.338"/><ellipse cx="277.38" cy="13.096" fill="#E7E7E7" opacity=".7" rx="3.843" ry="3.852"/><ellipse cx="231.268" cy="13.096" fill="#E7E7E7" opacity=".7" rx="4.355" ry="4.366"/><ellipse cx="262.265" cy="12.839" fill="#E7E7E7" opacity=".7" rx="1.025" ry="1.027"/><path fill="url(#paint5_linear)" stroke="#081A34" d="M247.419 13.0961C247.419 13.8139 246.839 14.3937 246.126 14.3937C245.413 14.3937 244.833 13.8139 244.833 13.0961C244.833 12.3783 245.413 11.7985 246.126 11.7985C246.839 11.7985 247.419 12.3783 247.419 13.0961Z"/><defs><linearGradient id="paint0_linear" x1="494.811" x2="514.623" y1="85.771" y2="85.771" gradientUnits="userSpaceOnUse"><stop stop-color="#D7D7D7"/><stop offset="1" stop-color="#606060" stop-opacity="0"/></linearGradient><linearGradient id="paint1_linear" x1="494.811" x2="514.623" y1="53.927" y2="53.927" gradientUnits="userSpaceOnUse"><stop stop-color="#D7D7D7"/><stop offset="1" stop-color="#606060" stop-opacity="0"/></linearGradient><radialGradient id="paint2_radial" cx="0" cy="0" r="1" gradientTransform="translate(246.895 322.031) rotate(90) scale(345.747 264.628)" gradientUnits="userSpaceOnUse"><stop stop-color="#FBFBFB"/><stop offset=".862" stop-color="#F7F7F7"/></radialGradient><linearGradient id="paint3_linear" x1="283.353" x2="283.353" y1="641.339" y2="22.815" gradientUnits="userSpaceOnUse"><stop stop-color="#FAFAFA"/><stop offset="1" stop-color="#F7F7F7"/></linearGradient><linearGradient id="paint4_linear" x1="425.168" x2="444.933" y1="2.054" y2="2.054" gradientUnits="userSpaceOnUse"><stop stop-color="#D7D7D7"/><stop offset="1" stop-color="#606060" stop-opacity="0"/></linearGradient><linearGradient id="paint5_linear" x1="246.126" x2="246.126" y1="11.299" y2="14.894" gradientUnits="userSpaceOnUse"><stop stop-color="#589AEB"/><stop offset=".515" stop-color="#122954"/><stop offset="1" stop-color="#589AEB"/></linearGradient></defs></svg>